HIERARCHY
ROOT mixamorig:Hips
{
	OFFSET 0.000000 201.639420 0.000000
	CHANNELS 6 Xposition Yposition Zposition Xrotation Yrotation Zrotation
	JOINT mixamorig:Spine
	{
		OFFSET 0.006200 19.524994 -2.481800
		CHANNELS 3 Xrotation Yrotation Zrotation
		JOINT mixamorig:Spine1
		{
			OFFSET -0.000900 22.835007 -2.825400
			CHANNELS 3 Xrotation Yrotation Zrotation
			JOINT mixamorig:Spine2
			{
				OFFSET -0.020600 26.552490 -3.193300
				CHANNELS 3 Xrotation Yrotation Zrotation
				JOINT mixamorig:Neck
				{
					OFFSET -0.060000 30.701813 1.352200
					CHANNELS 3 Xrotation Yrotation Zrotation
					JOINT mixamorig:Head
					{
						OFFSET -0.087200 22.547607 3.670900
						CHANNELS 3 Xrotation Yrotation Zrotation
						JOINT mixamorig:HeadTop_End
						{
							OFFSET -0.830600 40.355194 7.893500
							CHANNELS 3 Xrotation Yrotation Zrotation
							End Site
							{
								OFFSET 0.000000 30.592346 0.000000
							}
						}
						JOINT mixamorig:RightEye
						{
							OFFSET -6.302100 18.118591 16.197100
							CHANNELS 3 Xrotation Yrotation Zrotation
							End Site
							{
								OFFSET 0.000000 30.592346 0.000000
							}
						}
						JOINT mixamorig:LeftEye
						{
							OFFSET 6.741500 18.382690 16.401899
							CHANNELS 3 Xrotation Yrotation Zrotation
							End Site
							{
								OFFSET 0.000000 30.592346 0.000000
							}
						}
					}
				}
				JOINT mixamorig:LeftShoulder
				{
					OFFSET 11.924900 18.230499 1.425400
					CHANNELS 3 Xrotation Yrotation Zrotation
					JOINT mixamorig:LeftArm
					{
						OFFSET 25.435989 -0.697632 -5.229300
						CHANNELS 3 Xrotation Yrotation Zrotation
						JOINT mixamorig:LeftForeArm
						{
							OFFSET 54.684776 0.000000 0.000000
							CHANNELS 3 Xrotation Yrotation Zrotation
							JOINT mixamorig:LeftHand
							{
								OFFSET 55.098175 0.000000 0.000000
								CHANNELS 3 Xrotation Yrotation Zrotation
								JOINT mixamorig:LeftHandMiddle1
								{
									OFFSET 23.369751 0.000000 0.000000
									CHANNELS 3 Xrotation Yrotation Zrotation
									JOINT mixamorig:LeftHandMiddle2
									{
										OFFSET 6.378677 0.000000 0.000000
										CHANNELS 3 Xrotation Yrotation Zrotation
										JOINT mixamorig:LeftHandMiddle3
										{
											OFFSET 6.148331 0.000000 0.000000
											CHANNELS 3 Xrotation Yrotation Zrotation
											JOINT mixamorig:LeftHandMiddle4
											{
												OFFSET 6.582504 0.000000 0.000000
												CHANNELS 3 Xrotation Yrotation Zrotation
												End Site
												{
													OFFSET -1.168900 6.395691 1.028606
												}
											}
										}
									}
								}
								JOINT mixamorig:LeftHandThumb1
								{
									OFFSET 7.235672 -3.848206 5.434273
									CHANNELS 3 Xrotation Yrotation Zrotation
									JOINT mixamorig:LeftHandThumb2
									{
										OFFSET 6.568451 -3.792297 3.792300
										CHANNELS 3 Xrotation Yrotation Zrotation
										JOINT mixamorig:LeftHandThumb3
										{
											OFFSET 6.063080 -3.500519 3.500518
											CHANNELS 3 Xrotation Yrotation Zrotation
											JOINT mixamorig:LeftHandThumb4
											{
												OFFSET 4.793182 -2.767334 2.767349
												CHANNELS 3 Xrotation Yrotation Zrotation
												End Site
												{
													OFFSET 0.101639 6.054260 1.275483
												}
											}
										}
									}
								}
								JOINT mixamorig:LeftHandIndex1
								{
									OFFSET 23.101074 -0.309540 4.992809
									CHANNELS 3 Xrotation Yrotation Zrotation
									JOINT mixamorig:LeftHandIndex2
									{
										OFFSET 6.226883 0.000000 0.000000
										CHANNELS 3 Xrotation Yrotation Zrotation
										JOINT mixamorig:LeftHandIndex3
										{
											OFFSET 6.094330 0.000000 0.000000
											CHANNELS 3 Xrotation Yrotation Zrotation
											JOINT mixamorig:LeftHandIndex4
											{
												OFFSET 5.482605 0.000000 0.000000
												CHANNELS 3 Xrotation Yrotation Zrotation
												End Site
												{
													OFFSET -1.427902 5.233032 0.797164
												}
											}
										}
									}
								}
								JOINT mixamorig:LeftHandRing1
								{
									OFFSET 22.299240 0.021149 -3.964172
									CHANNELS 3 Xrotation Yrotation Zrotation
									JOINT mixamorig:LeftHandRing2
									{
										OFFSET 6.321869 0.000000 0.000000
										CHANNELS 3 Xrotation Yrotation Zrotation
										JOINT mixamorig:LeftHandRing3
										{
											OFFSET 5.899796 0.000000 0.000000
											CHANNELS 3 Xrotation Yrotation Zrotation
											JOINT mixamorig:LeftHandRing4
											{
												OFFSET 6.517899 0.000000 0.000000
												CHANNELS 3 Xrotation Yrotation Zrotation
												End Site
												{
													OFFSET -1.637299 6.232208 0.980890
												}
											}
										}
									}
								}
								JOINT mixamorig:LeftHandPinky1
								{
									OFFSET 20.463791 -0.302338 -8.562233
									CHANNELS 3 Xrotation Yrotation Zrotation
									JOINT mixamorig:LeftHandPinky2
									{
										OFFSET 6.908646 0.000000 0.000000
										CHANNELS 3 Xrotation Yrotation Zrotation
										JOINT mixamorig:LeftHandPinky3
										{
											OFFSET 4.622849 0.000000 0.000000
											CHANNELS 3 Xrotation Yrotation Zrotation
											JOINT mixamorig:LeftHandPinky4
											{
												OFFSET 5.216080 0.000000 0.000000
												CHANNELS 3 Xrotation Yrotation Zrotation
												End Site
												{
													OFFSET -0.606308 5.116241 0.814926
												}
											}
										}
									}
								}
							}
						}
					}
				}
				JOINT mixamorig:RightShoulder
				{
					OFFSET -12.001300 18.284088 1.348900
					CHANNELS 3 Xrotation Yrotation Zrotation
					JOINT mixamorig:RightArm
					{
						OFFSET -25.308500 -0.751312 -5.164599
						CHANNELS 3 Xrotation Yrotation Zrotation
						JOINT mixamorig:RightForeArm
						{
							OFFSET -54.684429 0.000000 0.000000
							CHANNELS 3 Xrotation Yrotation Zrotation
							JOINT mixamorig:RightHand
							{
								OFFSET -55.150291 0.000000 0.000000
								CHANNELS 3 Xrotation Yrotation Zrotation
								JOINT mixamorig:RightHandMiddle1
								{
									OFFSET -23.317566 0.000000 0.000000
									CHANNELS 3 Xrotation Yrotation Zrotation
									JOINT mixamorig:RightHandMiddle2
									{
										OFFSET -6.378403 0.000000 0.000000
										CHANNELS 3 Xrotation Yrotation Zrotation
										JOINT mixamorig:RightHandMiddle3
										{
											OFFSET -6.148193 0.000000 0.000000
											CHANNELS 3 Xrotation Yrotation Zrotation
											JOINT mixamorig:RightHandMiddle4
											{
												OFFSET -6.583389 0.000000 0.000000
												CHANNELS 3 Xrotation Yrotation Zrotation
												End Site
												{
													OFFSET 1.171692 6.395905 1.029786
												}
											}
										}
									}
								}
								JOINT mixamorig:RightHandThumb1
								{
									OFFSET -7.190521 -3.860474 5.435846
									CHANNELS 3 Xrotation Yrotation Zrotation
									JOINT mixamorig:RightHandThumb2
									{
										OFFSET -6.567429 -3.791718 3.791708
										CHANNELS 3 Xrotation Yrotation Zrotation
										JOINT mixamorig:RightHandThumb3
										{
											OFFSET -6.062469 -3.500153 3.500166
											CHANNELS 3 Xrotation Yrotation Zrotation
											JOINT mixamorig:RightHandThumb4
											{
												OFFSET -4.792618 -2.767029 2.767022
												CHANNELS 3 Xrotation Yrotation Zrotation
												End Site
												{
													OFFSET -0.100327 6.053253 1.276754
												}
											}
										}
									}
								}
								JOINT mixamorig:RightHandIndex1
								{
									OFFSET -23.048981 -0.310791 4.992554
									CHANNELS 3 Xrotation Yrotation Zrotation
									JOINT mixamorig:RightHandIndex2
									{
										OFFSET -6.227539 0.000000 0.000000
										CHANNELS 3 Xrotation Yrotation Zrotation
										JOINT mixamorig:RightHandIndex3
										{
											OFFSET -6.095047 0.000000 0.000000
											CHANNELS 3 Xrotation Yrotation Zrotation
											JOINT mixamorig:RightHandIndex4
											{
												OFFSET -5.484772 0.000000 0.000000
												CHANNELS 3 Xrotation Yrotation Zrotation
												End Site
												{
													OFFSET 1.420593 5.237305 0.797056
												}
											}
										}
									}
								}
								JOINT mixamorig:RightHandRing1
								{
									OFFSET -22.246323 0.020569 -3.963762
									CHANNELS 3 Xrotation Yrotation Zrotation
									JOINT mixamorig:RightHandRing2
									{
										OFFSET -6.322128 0.000000 0.000000
										CHANNELS 3 Xrotation Yrotation Zrotation
										JOINT mixamorig:RightHandRing3
										{
											OFFSET -5.900024 0.000000 0.000000
											CHANNELS 3 Xrotation Yrotation Zrotation
											JOINT mixamorig:RightHandRing4
											{
												OFFSET -6.518356 0.000000 0.000000
												CHANNELS 3 Xrotation Yrotation Zrotation
												End Site
												{
													OFFSET 1.636398 6.232697 0.982186
												}
											}
										}
									}
								}
								JOINT mixamorig:RightHandPinky1
								{
									OFFSET -20.411011 -0.303314 -8.561701
									CHANNELS 3 Xrotation Yrotation Zrotation
									JOINT mixamorig:RightHandPinky2
									{
										OFFSET -6.907349 0.000000 0.000000
										CHANNELS 3 Xrotation Yrotation Zrotation
										JOINT mixamorig:RightHandPinky3
										{
											OFFSET -4.623840 0.000000 0.000000
											CHANNELS 3 Xrotation Yrotation Zrotation
											JOINT mixamorig:RightHandPinky4
											{
												OFFSET -5.218353 0.000000 0.000000
												CHANNELS 3 Xrotation Yrotation Zrotation
												End Site
												{
													OFFSET 0.602097 5.118835 0.816273
												}
											}
										}
									}
								}
							}
						}
					}
				}
			}
		}
	}
	JOINT mixamorig:LeftUpLeg
	{
		OFFSET 18.168400 -13.561905 -0.039000
		CHANNELS 3 Xrotation Yrotation Zrotation
		JOINT mixamorig:LeftLeg
		{
			OFFSET 0.577358 -80.825211 -3.695000
			CHANNELS 3 Xrotation Yrotation Zrotation
			JOINT mixamorig:LeftFoot
			{
				OFFSET -0.577356 -83.370262 -6.520700
				CHANNELS 3 Xrotation Yrotation Zrotation
				JOINT mixamorig:LeftToeBase
				{
					OFFSET 0.750401 -20.798306 25.135401
					CHANNELS 3 Xrotation Yrotation Zrotation
					JOINT mixamorig:LeftToe_End
					{
						OFFSET -0.000500 0.001200 19.917799
						CHANNELS 3 Xrotation Yrotation Zrotation
						End Site
						{
							OFFSET 0.000000 19.917805 0.000000
						}
					}
				}
			}
		}
	}
	JOINT mixamorig:RightUpLeg
	{
		OFFSET -18.162500 -13.585098 -0.041000
		CHANNELS 3 Xrotation Yrotation Zrotation
		JOINT mixamorig:RightLeg
		{
			OFFSET -0.595024 -80.945297 -3.631900
			CHANNELS 3 Xrotation Yrotation Zrotation
			JOINT mixamorig:RightFoot
			{
				OFFSET 0.595024 -83.218193 -6.561200
				CHANNELS 3 Xrotation Yrotation Zrotation
				JOINT mixamorig:RightToeBase
				{
					OFFSET -0.753601 -20.807106 25.115000
					CHANNELS 3 Xrotation Yrotation Zrotation
					JOINT mixamorig:RightToe_End
					{
						OFFSET 0.000299 0.001700 19.918200
						CHANNELS 3 Xrotation Yrotation Zrotation
						End Site
						{
							OFFSET 0.000000 19.918203 0.000000
						}
					}
				}
			}
		}
	}
}
MOTION
Frames: 4
Frame Time: 0.033333
22.093369 194.967270 120.217560 -107.362931 39.471506 46.329433 8.991667 1.031600 9.195901 17.896416 1.332957 17.080177 17.896419 1.332926 17.080169 -22.501000 -14.716742 -8.046275 4.739496 -14.381047 -1.023503 0.000001 0.000001 0.000001 0.000001 0.000001 0.000001 0.000001 0.000001 0.000001 -1.998323 11.048442 10.564302 12.555163 13.417853 -24.886018 3.520319 -111.028113 3.286087 -77.154746 4.435934 1.569159 -0.842705 7.183690 -4.439048 -0.013114 -0.002151 -4.862278 0.000014 0.000007 0.000003 0.000002 0.000000 -0.000000 -20.688231 5.043531 13.363230 -0.459500 1.350701 0.822979 -0.000005 0.000002 -0.000007 0.000001 0.000000 0.000000 -8.269399 7.703875 -4.366233 0.453565 0.821716 -6.873188 0.000005 0.000004 -0.000003 0.000000 -0.000000 0.000001 1.717205 5.729631 -2.574877 -0.055166 0.258321 -8.790846 -0.000000 -0.000003 0.000000 -0.000000 -0.000000 0.000001 7.251331 6.330533 -2.560755 -0.119986 -1.413390 -8.629185 -0.000002 -0.000004 0.000001 0.000000 0.000000 -0.000002 -0.798669 -2.519928 -16.482151 4.335866 9.425258 67.741857 -0.828099 117.077475 0.737729 -11.312297 8.964155 38.367341 -0.507159 -1.332188 30.467452 -0.516892 1.650851 30.186947 0.000001 -0.000015 -0.000000 0.000001 0.000003 -0.000002 -6.290436 0.817695 -10.818997 6.875186 -23.665400 -5.335667 -0.000023 -0.000002 0.000008 -0.000002 0.000002 0.000001 0.194389 -1.241496 19.407658 0.498258 -1.877664 35.153508 0.000003 -0.000009 -0.000000 0.000004 -0.000002 -0.000003 -0.851574 -6.873715 37.951745 -0.736894 1.119429 36.855506 -0.000006 0.000002 -0.000001 0.000000 0.000001 -0.000001 -1.726006 -11.215360 42.035744 -1.367058 3.734189 38.604489 -0.000009 -0.000001 0.000001 -0.000001 0.000000 0.000001 -105.770882 -42.015854 -13.710775 110.130981 -1.512585 -2.479853 53.460376 -6.201342 2.731745 6.845936 -8.450360 7.331497 -0.000000 0.000000 0.000001 -88.267081 -15.386026 15.808087 64.775690 2.550408 2.305046 25.602522 -19.701829 15.254903 -5.649372 -1.524223 1.434792 -0.000001 0.000000 0.000000 
18.797554 191.328522 117.671326 -105.599554 38.682213 44.488765 8.976562 0.990262 8.983661 17.871178 1.274384 16.739829 17.871166 1.274387 16.739822 -18.155864 -16.217640 -6.295490 1.457935 -13.466741 -1.130429 -0.000001 -0.000001 -0.000000 -0.000001 -0.000001 -0.000000 -0.000001 -0.000001 -0.000000 -1.786436 9.900297 10.508935 12.623197 13.001421 -26.066263 3.307170 -111.497572 3.077233 -71.797589 4.984833 5.089703 -0.824239 7.099153 -6.154327 -0.024909 -0.115873 -6.998779 0.000014 0.000007 0.000002 -0.000000 -0.000000 0.000000 -20.817261 4.440512 13.211805 -1.068151 0.907434 1.395017 -0.000003 0.000001 -0.000007 0.000002 -0.000000 0.000000 -8.261822 7.785928 -5.187290 0.473093 0.957536 -8.736452 0.000005 0.000004 -0.000002 -0.000000 0.000001 -0.000003 1.688499 5.449535 -5.335129 -0.055161 0.258322 -8.790845 -0.000000 -0.000003 0.000001 -0.000001 0.000000 -0.000002 7.141545 5.587071 -6.279940 -0.119951 -1.413389 -8.629191 -0.000003 -0.000005 0.000003 0.000000 0.000000 0.000001 -1.239277 -3.075210 -21.621683 5.434526 1.319178 72.938545 -2.317314 112.882987 2.135489 -13.491039 9.795203 39.407856 -0.507165 -1.332210 30.467445 -0.516872 1.650844 30.186953 0.000000 -0.000015 -0.000002 0.000003 -0.000002 0.000003 -3.528012 0.225606 -6.370929 6.875153 -23.665395 -5.335687 -0.000023 -0.000004 0.000007 0.000002 0.000000 0.000000 0.194383 -1.241493 19.407656 0.498258 -1.877645 35.153525 0.000001 -0.000005 -0.000005 0.000002 -0.000001 -0.000002 -0.851571 -6.873702 37.951728 -0.736908 1.119440 36.855499 -0.000005 0.000008 -0.000003 -0.000002 -0.000003 0.000002 -1.726008 -11.215363 42.035747 -1.367070 3.734205 38.604513 -0.000009 0.000001 -0.000002 0.000001 -0.000000 0.000001 -100.364719 -41.049976 -8.567835 101.711045 -1.282444 -2.479667 48.883415 -0.672578 1.602928 7.317997 -6.953839 5.767889 -0.000000 -0.000001 -0.000000 -87.727400 -15.231132 17.076429 60.858871 2.404524 2.229810 22.411553 -24.069447 17.214201 -3.929397 -1.513594 1.354975 0.000003 0.000000 0.000001 
15.714241 187.595093 115.116135 -104.608104 37.914329 43.533191 9.080999 0.716936 8.770727 18.108153 0.827131 16.436350 18.108150 0.827120 16.436341 -13.993863 -17.178633 -4.872253 -0.807134 -12.704785 -1.284373 0.000002 -0.000001 -0.000002 0.000002 -0.000001 -0.000002 0.000002 -0.000001 -0.000002 -1.669906 9.092810 10.750566 13.914502 12.393225 -27.288151 3.105667 -110.623677 2.906657 -66.583867 5.257547 6.715121 -0.779442 7.002911 -8.184953 -0.039345 -0.218906 -8.942890 0.000014 0.000007 0.000003 -0.000001 0.000000 -0.000000 -20.924513 4.023601 13.096618 -1.450949 0.746489 1.882507 -0.000004 0.000001 -0.000006 0.000002 -0.000000 0.000000 -8.167054 7.950164 -6.182943 0.494630 1.079795 -10.493048 0.000005 0.000003 0.000002 -0.000001 -0.000000 0.000001 1.567222 5.082759 -9.002605 -0.055134 0.258321 -8.790839 -0.000003 -0.000003 0.000001 -0.000000 0.000000 -0.000000 6.458505 4.515361 -11.029570 -0.119978 -1.413387 -8.629176 -0.000002 -0.000005 0.000002 0.000000 0.000000 0.000001 -1.630160 -4.110906 -23.041783 5.984491 -7.338845 74.529351 -5.018346 106.185591 4.820746 -13.037836 9.939704 40.940017 -0.507166 -1.332190 30.467456 -0.516876 1.650858 30.186943 0.000001 -0.000013 -0.000002 -0.000001 0.000003 0.000001 0.460389 -0.790543 -0.198790 6.875169 -23.665393 -5.335678 -0.000019 -0.000003 0.000006 -0.000004 0.000000 0.000000 0.194385 -1.241488 19.407663 0.498260 -1.877666 35.153512 -0.000001 -0.000002 -0.000004 -0.000002 -0.000001 0.000001 -0.851579 -6.873698 37.951751 -0.736892 1.119429 36.855496 -0.000000 0.000008 -0.000004 0.000000 -0.000004 -0.000002 -1.726020 -11.215358 42.035726 -1.367045 3.734202 38.604537 -0.000010 -0.000002 -0.000002 -0.000001 0.000000 0.000000 -94.644504 -38.316654 -3.024143 91.769185 -0.981355 -2.422965 43.268627 0.009219 6.643897 8.804645 -6.472093 5.159216 0.000000 -0.000001 0.000000 -86.661645 -14.584242 17.626695 59.050073 2.317710 2.190688 17.815213 -29.191071 24.757885 -2.683071 -1.744021 1.473384 0.000001 -0.000000 0.000000 
13.540627 183.851868 112.471146 -104.513670 37.433289 43.532019 9.279102 0.191376 8.604550 18.540122 0.229320 16.389275 18.540122 0.229298 16.389276 -11.225167 -17.598008 -3.766039 -1.592004 -12.022491 -1.537460 0.000002 0.000002 0.000002 0.000002 0.000002 0.000002 0.000002 0.000002 0.000002 -1.670924 8.785984 11.261405 15.460540 11.719010 -29.079981 3.158153 -108.639438 2.992505 -58.368720 4.521332 7.730334 -0.706018 6.760271 -11.157761 -0.058762 -0.329198 -11.035298 0.000014 0.000007 0.000002 -0.000000 0.000001 0.000002 -20.435485 3.834951 12.330880 -1.413472 1.335384 2.335420 -0.000003 0.000001 -0.000008 0.000001 -0.000000 0.000000 -7.853932 7.858613 -7.590646 0.573803 1.541215 -12.465033 0.000004 0.000004 -0.000002 -0.000000 -0.000000 0.000000 1.316941 4.655207 -14.261844 -0.067372 0.182599 -9.556816 -0.000000 -0.000003 0.000000 -0.000000 -0.000000 0.000002 4.915698 3.416315 -17.769237 -0.141811 -1.550922 -9.386904 -0.000005 -0.000005 0.000000 -0.000001 0.000000 0.000001 -2.098680 -5.808111 -22.715189 6.256953 -14.856749 73.454436 -11.338095 98.892574 11.205604 -7.849387 10.405451 40.194676 -0.507157 -1.332201 30.467462 -0.516881 1.650853 30.186943 0.000001 -0.000012 -0.000000 0.000000 0.000000 -0.000000 2.437789 -1.212192 2.985934 6.875169 -23.665400 -5.335680 -0.000021 -0.000003 0.000006 0.000002 0.000000 0.000001 0.194383 -1.241485 19.407677 0.498255 -1.877654 35.153508 -0.000001 -0.000009 0.000003 0.000003 -0.000003 0.000002 -0.851568 -6.873692 37.951755 -0.736892 1.119416 36.855482 -0.000003 0.000009 -0.000003 -0.000001 0.000000 -0.000001 -1.726000 -11.215352 42.035754 -1.367063 3.734198 38.604519 -0.000008 -0.000001 -0.000001 0.000000 0.000005 -0.000002 -90.560454 -35.064333 0.756194 81.894665 -0.590996 -2.301736 37.978461 -7.893644 14.385492 10.287288 -6.928889 5.539268 0.000000 -0.000000 -0.000000 -85.094342 -13.824838 17.596256 59.043400 2.196131 2.180270 20.682330 -32.476228 30.195378 -2.145827 -2.070996 1.697988 0.000002 0.000000 -0.000000 
